Coordinates
version=1
nRows=22
nColumns=24
inDegrees=yes

Units are S.I. units (second, meters, Newtons, ...)
Angles are in degrees.

endheader
time	pelvis_tilt	pelvis_list	pelvis_rotation	pelvis_tx	pelvis_ty	pelvis_tz	hip_flexion_r	hip_adduction_r	hip_rotation_r	knee_angle_r	ankle_angle_r	subtalar_angle_r	mtp_angle_r	hip_flexion_l	hip_adduction_l	hip_rotation_l	knee_angle_l	ankle_angle_l	subtalar_angle_l	mtp_angle_l	lumbar_extension	lumbar_bending	lumbar_rotation
      0.56600000	      0.18626239	      2.81831112	     12.30590572	     -0.81951357	      0.87194956	      0.27489261	     31.47259429	     -4.47454719	    -11.87603024	     -9.96319679	      8.45755483	     -0.38836862	      5.02802541	    -22.13787956	      1.62232871	      3.29983821	    -12.15988996	     16.33821129	      6.91488487	     18.13891494	     -7.41292583	     -4.68908270	    -11.58312625
      0.57016667	      0.24134208	      2.69470341	     12.36175327	     -0.81310123	      0.87128793	      0.27505415	     31.43650478	     -4.28081940	    -11.89181419	    -10.61198085	      8.31348743	     -0.59154828	      5.00665535	    -22.26394061	      1.36151314	      3.28543443	    -12.80704683	     16.02898832	      6.84642644	     18.15408955	     -7.38095110	     -4.47366028	    -11.55767492
      0.57433333	      0.29247914	      2.52110846	     12.39626914	     -0.80663509	      0.87064744	      0.27534065	     31.33336907	     -3.98306071	    -11.72500449	    -11.08240958	      7.88193006	     -1.25265622	      4.92051612	    -22.31447810	      1.03415687	      3.06516517	    -13.58105537	     15.80663941	      7.10071988	     18.34697326	     -7.29538160	     -4.18805139	    -11.45997150
      0.57850000	      0.36203197	      2.34010312	     12.42745495	     -0.80008888	      0.87006678	      0.27560827	     31.21614197	     -3.68433469	    -11.64228835	    -11.59073501	      7.49312005	     -1.71716125	      4.86919666	    -22.40242020	      0.70031984	      2.89150399	    -14.31809911	     15.47204802	      7.22845762	     18.62458793	     -7.24055471	     -3.89001837	    -11.38035644
      0.58266667	      0.41367939	      2.16388569	     12.44836147	     -0.79352464	      0.86949199	      0.27589691	     31.11473306	     -3.38441674	    -11.52813830	    -12.09665182	      7.04133104	     -2.22200486	      4.85432346	    -22.45306314	      0.38378057	      2.74692534	    -15.08871559	     15.10158749	      7.29551797	     18.98878923	     -7.16694315	     -3.60672955	    -11.28892862
      0.58683333	      0.45804314	      1.97788946	     12.46023607	     -0.78692461	      0.86892180	      0.27621241	     31.02421610	     -3.07216668	    -11.42179051	    -12.61319691	      6.57901653	     -2.66258591	      5.17762671	    -22.46936446	      0.05038810	      2.51945486	    -15.89696905	     14.64273201	      7.39060492	     23.60988908	     -7.07345422	     -3.30330142	    -11.21385609
      0.59100000	      0.52786279	      1.77994910	     12.46242347	     -0.78027724	      0.86844601	      0.27653821	     30.89050754	     -2.73333008	    -11.30668735	    -13.09270820	      5.99329092	     -3.19770350	      5.18531286	    -22.53871070	     -0.27890969	      2.43194149	    -16.65650027	     14.15198385	      7.30995870	     23.67722385	     -7.01445019	     -2.99296925	    -11.08597060
      0.59516667	      0.57048469	      1.57620227	     12.44709620	     -0.77360426	      0.86794674	      0.27691349	     30.79472033	     -2.38054483	    -11.14528859	    -13.58565581	      5.36900083	     -3.77300022	      5.22268093	    -22.53817847	     -0.60875921	      2.27962581	    -17.49129852	     13.64874939	      7.31747448	     23.82228517	     -6.92451512	     -2.67823975	    -10.95135361
      0.59933333	      0.60938029	      1.36067302	     12.42133377	     -0.76690442	      0.86747445	      0.27731065	     30.70315618	     -2.00964587	    -10.96015441	    -14.07332620	      4.69817917	     -4.37483592	      5.29423396	    -22.51722765	     -0.94737708	      2.11929279	    -18.35018156	     13.10518934	      7.33006240	     24.05527503	     -6.82434231	     -2.34917764	    -10.80039049
      0.60350000	      0.64131154	      1.14788096	     12.38548508	     -0.76018632	      0.86701941	      0.27771489	     30.63597602	     -1.64439027	    -10.78644918	    -14.60023719	      4.01222957	     -4.95940816	      5.38445656	    -22.46680335	     -1.27637454	      1.95242270	    -19.24814782	     12.52555731	      7.31443970	     24.33951847	     -6.69748118	     -2.02211948	    -10.64582731
      0.60766667	      0.66161666	      0.93040099	     12.33155919	     -0.75345448	      0.86657348	      0.27814902	     30.59628976	     -1.26900559	    -10.57820741	    -15.15362393	      3.31312175	     -5.55621284	      5.49531950	    -22.38409013	     -1.60062933	      1.78298746	    -20.17653939	     11.90723191	      7.29347025	     24.68611687	     -6.56951086	     -1.69021136	    -10.46969040
      0.61183333	      0.68308623	      0.68757669	     12.26818501	     -0.74668760	      0.86613154	      0.27861693	     30.57743364	     -0.87165245	    -10.40140848	    -15.75259739	      2.66048280	     -6.04483844	      7.02260928	    -22.25541340	     -1.96891823	      1.49943660	    -21.17758951	     11.22563354	      7.36664731	     29.26995438	     -6.43385213	     -1.32344372	    -10.34678096
      0.61600000	      0.68474030	      0.48878916	     12.19871787	     -0.73996006	      0.86574230	      0.27905345	     30.59798672	     -0.52536530	    -10.18822780	    -16.40848182	      1.99421827	     -6.59146214	      7.00240491	    -22.12828329	     -2.24455556	      1.44213616	    -22.13699913	     10.48413252	      7.16294612	     29.33352520	     -6.29917376	     -1.01742633	    -10.13743323
      0.62016667	      0.67206068	      0.26966295	     12.11364313	     -0.73321876	      0.86533563	      0.27954520	     30.65773875	     -0.15443816	     -9.95265933	    -17.11146684	      1.38732481	     -7.12052044	      6.99990198	    -21.93533014	     -2.55158547	      1.27936649	    -23.18257479	      9.75023971	      7.11207487	     29.46621302	     -6.14297260	     -0.69076016	     -9.93400539
      0.62433333	      0.65309405	      0.05380491	     12.01698662	     -0.72648486	      0.86494313	      0.28004093	     30.74849320	      0.20842536	     -9.72138965	    -17.87455170	      0.83456177	     -7.58680767	      7.00654901	    -21.70883051	     -2.84747153	      1.12337224	    -24.27453364	      8.99414950	      7.04438994	     29.62360951	     -5.97773155	     -0.36392373	     -9.74088891
      0.62850000	      0.63024902	     -0.16452940	     11.91395606	     -0.71975934	      0.86456753	      0.28055331	     30.86520273	      0.57225258	     -9.48317833	    -18.69141477	      0.34827028	     -8.02839378	      7.01837280	    -21.44296395	     -3.14762950	      0.95157129	    -25.42253776	      8.21480206	      6.99609885	     29.81944081	     -5.81256068	     -0.03455748	     -9.53961781
      0.63266667	      0.60119124	     -0.38305664	     11.80368686	     -0.71303964	      0.86420463	      0.28108521	     31.01047843	      0.93370397	     -9.24660767	    -19.56511315	     -0.06420005	     -8.42777168	      7.02972046	    -21.13894746	     -3.44925433	      0.76647719	    -26.61633376	      7.37528636	      6.94434626	     30.04375014	     -5.64482373	      0.29138629	     -9.34007204
      0.63683333	      0.56923385	     -0.59568728	     11.68304503	     -0.70633322	      0.86386629	      0.28162619	     31.17599080	      1.28894594	     -9.00629435	    -20.48737717	     -0.39671139	     -8.77352136	      7.03555068	    -20.80362131	     -3.74164310	      0.58020886	    -27.84943630	      6.51130427	      6.88894801	     30.27554407	     -5.48157804	      0.61291719	     -9.14026454
      0.64100000	      0.53755589	     -0.80980960	     11.56175618	     -0.69963989	      0.86355432	      0.28217991	     31.35344447	      1.64395237	     -8.77563371	    -21.44704457	     -0.65013830	     -9.07246417	      7.03297944	    -20.43723034	     -4.03821532	      0.40539814	    -29.12576498	      5.63073991	      6.82380519	     30.51196727	     -5.32106627	      0.93677715	     -8.94632375
      0.64516667	      0.51078556	     -1.02977378	     11.44542944	     -0.69295390	      0.86326821	      0.28272699	     31.53822948	      2.00014870	     -8.56622490	    -22.44772469	     -0.80247637	     -9.37269469	      7.01433559	    -20.03991159	     -4.34980999	      0.22586343	    -30.45047233	      4.71068749	      6.77487470	     30.83271397	     -5.16256407	      1.28318933	     -8.73777245
      0.64933333	      0.48078067	     -1.23878276	     11.31821673	     -0.68630443	      0.86301947	      0.28331019	     31.71869102	      2.35151650	     -8.34333737	    -23.43823851	     -0.91341467	     -9.54161076	      6.98777732	    -19.59733808	     -4.65715575	      0.01155843	    -31.83024723	      3.74450622	      6.71679603	     31.04880334	     -5.01620029	      1.58343230	     -8.58006764
      0.65350000	      0.49760187	     -1.47134158	     11.19933344	     -0.67963662	      0.86287554	      0.28385716	     31.83934532	      2.72832209	     -8.16094226	    -24.42359987	     -0.88742071	     -9.67015987	      6.97187074	    -19.19447858	     -4.99545567	     -0.16678914	    -33.19927252	      2.70063238	      6.59908892	     31.13642508	     -4.92085125	      1.96266470	     -8.46914174
